<svg xmlns="http://www.w3.org/2000/svg" width="15" height="15" viewBox="0 0 15 15">
  <path fill="#2AFEF1" fill-rule="evenodd" d="M10.5385047,0.924232 C9.47400472,0.31683 8.26930472,-0.00172233 7.04378472,7.00362e-06 C5.96908472,-0.000654211 4.90850472,0.244758 3.94333472,0.717475 C2.97816472,1.19019 2.13403472,1.87765 1.47565472,2.72716 C0.817259721,3.57667 0.362102721,4.56569 0.145058721,5.61835 C-0.0719845789,6.671 -0.0451544789,7.75941 0.223508721,8.80011 C0.492164721,9.84076 0.995507721,10.8061 1.69495472,11.6222 C2.39441472,12.4382 3.27139472,13.0832 4.25868472,13.5078 C5.24598472,13.9324 6.31737472,14.1252 7.39072472,14.0715 C8.46408472,14.0179 9.51090472,13.7192 10.4509047,13.1983 L14.1088047,14.9405 C14.2252047,14.9953 14.3558047,15.0128 14.4826047,14.9907 C14.6094047,14.9685 14.7263047,14.9077 14.8173047,14.8165 C14.9082047,14.7255 14.9688047,14.6085 14.9908047,14.4816 C15.0128047,14.3548 14.9951047,14.2242 14.9401047,14.1078 L13.1999047,10.4496 C13.7954047,9.37831 14.1005047,8.17002 14.0852047,6.94444 C14.0698047,5.7189 13.7344047,4.51864 13.1123047,3.46263 C12.4902047,2.40662 11.6029047,1.53158 10.5385047,0.924232 Z M9.06458472,5.93812 C9.06458472,6.45595 9.48435472,6.87577 10.0022047,6.87577 C10.5200047,6.87577 10.9397047,6.45595 10.9397047,5.93812 C10.9397047,5.42024 10.5200047,5.00042 10.0022047,5.00042 C9.48435472,5.00042 9.06458472,5.42024 9.06458472,5.93812 Z M4.06413472,6.87577 C3.54632472,6.87577 3.12655472,6.45595 3.12655472,5.93812 C3.12655472,5.42024 3.54632472,5.00042 4.06413472,5.00042 C4.58195472,5.00042 5.00172472,5.42024 5.00172472,5.93812 C5.00172472,6.45595 4.58195472,6.87577 4.06413472,6.87577 Z M8.57516472,7.82344 L5.47051472,7.82344 C5.38762472,7.82344 5.30813472,7.85635 5.24952472,7.915 C5.19091472,7.97359 5.15799472,8.05309 5.15799472,8.13599 C5.16693472,8.62473 5.36734472,9.09043 5.71609472,9.43289 C6.06485472,9.77535 6.53407472,9.96725 7.02283472,9.96725 C7.51159472,9.96725 7.98082472,9.77535 8.32958472,9.43289 C8.67833472,9.09043 8.87874472,8.62473 8.88768472,8.13599 C8.88768472,8.05309 8.85476472,7.97359 8.79615472,7.915 C8.73754472,7.85635 8.65805472,7.82344 8.57516472,7.82344 Z"/>
</svg>
